<svg version="1" xmlns="http://www.w3.org/2000/svg" width="100" height="100" viewBox="0 0 75.000000 75.000000"><path d="M28.7 1c-11 2.8-20.1 10.3-25 20.8C.9 27.8.5 29.5.5 37.5c0 8 .4 9.7 3.2 15.7 1.7 3.6 5 8.5 7.3 10.8 2.3 2.3 7.2 5.6 10.8 7.3 6 2.8 7.7 3.2 15.7 3.2 8 0 9.7-.4 15.7-3.2 8.4-3.9 14.2-9.7 18.1-18.1 2.8-6 3.2-7.7 3.2-15.7 0-8-.4-9.7-3.2-15.7C65.3 9 53.8 1.2 39.8.5c-4-.3-9 0-11.1.5zm22 7c6.6 2.8 14.3 10.8 16.9 17.5 1.2 3.2 1.9 7.5 1.9 12 0 9.2-2.5 15.6-8.7 22.1-6.8 7.2-13.1 9.8-23.3 9.8-6.2 0-9.2-.5-13.2-2.3-6.6-2.9-14.3-11-16.9-17.6-2.5-6.7-2.5-17.3 0-24 2.1-5.4 9.3-13.8 14.1-16.3C30.6 4.5 41.5 4 50.7 8z"/><path d="M17.3 18.5L13.2 26h18l-4.1-7.2c-2.2-4-4.3-7.4-4.8-7.5-.4-.1-2.7 3.1-5 7.2zM29 37v8h16V29H29v8zM46.7 46.8C44.1 49.4 42 52 42 52.6c0 .5 2.3 3.2 5 5.9l5 4.9 5.5-5.4 5.5-5.4-5.2-5.3C54.9 44.4 52.3 42 52 42c-.3 0-2.7 2.2-5.3 4.8z"/></svg>
